<svg width="24" height="24" viewBox="0 0 24 24" fill="none" xmlns="http://www.w3.org/2000/svg">
<path d="M21.1406 12.7498H18.1406C17.7428 12.7498 17.3613 12.9079 17.08 13.1892C16.7987 13.4705 16.6406 13.852 16.6406 14.2498V17.9998C16.6406 18.3976 16.7987 18.7792 17.08 19.0605C17.3613 19.3418 17.7428 19.4998 18.1406 19.4998H19.6406C20.0384 19.4998 20.42 19.3418 20.7013 19.0605C20.9826 18.7792 21.1406 18.3976 21.1406 17.9998V12.7498ZM21.1406 12.7498C21.1407 11.5616 20.9054 10.3851 20.4484 9.28826C19.9915 8.19141 19.3218 7.19591 18.4781 6.3592C17.6344 5.52248 16.6334 4.86112 15.5328 4.41326C14.4322 3.9654 13.2538 3.73992 12.0656 3.74982C10.8782 3.74117 9.70083 3.96757 8.60132 4.41598C7.5018 4.8644 6.50189 5.52596 5.6592 6.36255C4.81651 7.19914 4.1477 8.19422 3.69131 9.29045C3.23492 10.3867 2.99997 11.5624 3 12.7498V17.9998C3 18.3976 3.15804 18.7792 3.43934 19.0605C3.72064 19.3418 4.10218 19.4998 4.5 19.4998H6C6.39782 19.4998 6.77936 19.3418 7.06066 19.0605C7.34196 18.7792 7.5 18.3976 7.5 17.9998V14.2498C7.5 13.852 7.34196 13.4705 7.06066 13.1892C6.77936 12.9079 6.39782 12.7498 6 12.7498H3" stroke="#2091F9" stroke-width="1.5" stroke-linecap="round" stroke-linejoin="round"/>
</svg>
