<svg width="16" height="17" viewBox="0 0 16 17" fill="none" xmlns="http://www.w3.org/2000/svg">
<path d="M9.875 15.2498V11.4998C9.875 11.334 9.80915 11.1751 9.69194 11.0579C9.57473 10.9406 9.41576 10.8748 9.25 10.8748H6.75C6.58424 10.8748 6.42527 10.9406 6.30806 11.0579C6.19085 11.1751 6.125 11.334 6.125 11.4998V15.2498C6.125 15.4156 6.05915 15.5745 5.94194 15.6917C5.82473 15.809 5.66576 15.8748 5.5 15.8748H1.75C1.58424 15.8748 1.42527 15.809 1.30806 15.6917C1.19085 15.5745 1.125 15.4156 1.125 15.2498V8.02324C1.1264 7.93674 1.14509 7.8514 1.17998 7.77224C1.21486 7.69308 1.26523 7.6217 1.32812 7.5623L7.57812 1.88261C7.69334 1.77721 7.84384 1.71875 8 1.71875C8.15616 1.71875 8.30666 1.77721 8.42187 1.88261L14.6719 7.5623C14.7348 7.6217 14.7851 7.69308 14.82 7.77224C14.8549 7.8514 14.8736 7.93674 14.875 8.02324V15.2498C14.875 15.4156 14.8092 15.5745 14.6919 15.6917C14.5747 15.809 14.4158 15.8748 14.25 15.8748H10.5C10.3342 15.8748 10.1753 15.809 10.0581 15.6917C9.94085 15.5745 9.875 15.4156 9.875 15.2498Z" stroke="#5F6C72" stroke-width="1.5" stroke-linecap="round" stroke-linejoin="round"/>
</svg>
