<svg width="16" height="16" viewBox="0 0 16 16" fill="none" xmlns="http://www.w3.org/2000/svg">
<g clip-path="url(#clip0_73_1017)">
<path d="M5.60058 7.9998C5.60058 6.67437 6.6748 5.59961 8.00029 5.59961C9.32578 5.59961 10.4006 6.67437 10.4006 7.9998C10.4006 9.32524 9.32578 10.4 8.00029 10.4C6.6748 10.4 5.60058 9.32524 5.60058 7.9998ZM4.30303 7.9998C4.30303 10.0417 5.95829 11.6969 8.00029 11.6969C10.0423 11.6969 11.6976 10.0417 11.6976 7.9998C11.6976 5.95788 10.0423 4.30269 8.00029 4.30269C5.95829 4.30269 4.30309 5.95777 4.30309 7.9998H4.30303ZM10.9799 4.1561C10.9799 4.32698 11.0305 4.49405 11.1254 4.63617C11.2203 4.77829 11.3552 4.88909 11.513 4.95454C11.6709 5.02 11.8446 5.03718 12.0122 5.00391C12.1798 4.97064 12.3338 4.88841 12.4547 4.76763C12.5756 4.64684 12.6579 4.49293 12.6913 4.32534C12.7247 4.15776 12.7077 3.98403 12.6424 3.82613C12.577 3.66822 12.4663 3.53324 12.3243 3.43825C12.1822 3.34325 12.0152 3.29251 11.8443 3.29244H11.844C11.6149 3.29255 11.3953 3.38357 11.2333 3.5455C11.0712 3.70743 10.9801 3.92704 10.9799 4.1561ZM5.09137 13.8605C4.38938 13.8285 4.00782 13.7116 3.75425 13.6128C3.41809 13.4819 3.17823 13.3261 2.92605 13.0742C2.67386 12.8224 2.51776 12.5828 2.38746 12.2467C2.28862 11.9932 2.17169 11.6116 2.13977 10.9096C2.10487 10.1506 2.0979 9.92266 2.0979 7.99992C2.0979 6.07717 2.10544 5.84983 2.13977 5.09026C2.17174 4.38828 2.28954 4.00738 2.38746 3.75319C2.51834 3.41703 2.67421 3.17719 2.92605 2.92501C3.17788 2.67284 3.41751 2.51675 3.75425 2.38645C4.0077 2.28761 4.38938 2.17068 5.09137 2.13877C5.85034 2.10387 6.07833 2.0969 8.00029 2.0969C9.92225 2.0969 10.1505 2.10433 10.9101 2.13889C11.6121 2.17086 11.993 2.28865 12.2472 2.38657C12.5834 2.51686 12.8232 2.6733 13.0754 2.92513C13.3276 3.17696 13.4831 3.41715 13.614 3.7533C13.7128 4.00674 13.8298 4.3884 13.8617 5.09037C13.8966 5.84994 13.9035 6.07729 13.9035 8.00003C13.9035 9.92278 13.8966 10.1501 13.8617 10.9097C13.8297 11.6117 13.7122 11.9932 13.614 12.2468C13.4831 12.5829 13.3272 12.8228 13.0754 13.0744C12.8236 13.326 12.5834 13.4821 12.2472 13.6129C11.9937 13.7118 11.6121 13.8287 10.9101 13.8606C10.1511 13.8955 9.92311 13.9025 8.00029 13.9025C6.07747 13.9025 5.85011 13.8955 5.09137 13.8606V13.8605ZM5.03176 0.843408C4.26524 0.878314 3.74146 0.999849 3.28404 1.17783C2.81061 1.36164 2.4093 1.60822 2.00856 2.00831C1.60782 2.4084 1.36186 2.80976 1.17805 3.28375C1.00006 3.74144 0.878515 4.26491 0.843608 5.03139C0.808125 5.79908 0.800003 6.04451 0.800003 7.9998C0.800003 9.95509 0.808125 10.2005 0.843608 10.9682C0.878515 11.7348 1.00006 12.2582 1.17805 12.7159C1.36186 13.1893 1.60788 13.5914 2.00856 13.9913C2.40924 14.3912 2.81004 14.6375 3.28404 14.8218C3.74233 14.9998 4.26524 15.1213 5.03176 15.1562C5.79988 15.1911 6.04492 15.1998 8.00029 15.1998C9.95566 15.1998 10.2011 15.1917 10.9688 15.1562C11.7354 15.1213 12.2588 14.9998 12.7165 14.8218C13.19 14.6375 13.5913 14.3914 13.992 13.9913C14.3928 13.5912 14.6382 13.1893 14.8225 12.7159C15.0005 12.2582 15.1226 11.7347 15.157 10.9682C15.1919 10.2 15.2 9.95509 15.2 7.9998C15.2 6.04451 15.1919 5.79908 15.157 5.03139C15.1221 4.26485 15.0005 3.74115 14.8225 3.28375C14.6382 2.81033 14.3921 2.40903 13.992 2.00831C13.5919 1.60759 13.19 1.36164 12.7171 1.17783C12.2588 0.999849 11.7353 0.877738 10.9694 0.843408C10.2016 0.80833 9.95623 0.799805 8.00115 0.799805C6.04608 0.799805 5.80017 0.807926 5.03204 0.843408" fill="white"/>
</g>
<defs>
<clipPath id="clip0_73_1017">
<rect width="16" height="16" fill="white"/>
</clipPath>
</defs>
</svg>
