<svg width="16" height="16" viewBox="0 0 16 16" fill="none" xmlns="http://www.w3.org/2000/svg">
<g clip-path="url(#clip0_73_1009)">
<path d="M7.02416 0.0530204C4.36531 0.349837 1.71582 2.50098 1.60647 5.57382C1.53773 7.45001 2.07044 8.85755 3.85603 9.25278C4.63088 7.88586 3.60608 7.58436 3.44674 6.59549C2.79218 2.54316 8.12083 -0.220364 10.9093 2.60877C12.8387 4.56776 11.5686 10.5947 8.4567 9.96827C5.47603 9.36995 9.91579 4.57245 7.53656 3.63045C5.60257 2.86497 4.57464 5.97218 5.49165 7.51563C4.95425 10.1698 3.79667 12.6709 4.26533 15.9999C5.78534 14.897 6.29774 12.7849 6.71797 10.5822C7.48189 11.0462 7.88962 11.5289 8.86443 11.6039C12.459 11.882 14.4665 8.01553 13.9759 4.44904C13.5401 1.28715 10.3844 -0.321906 7.02416 0.0530204Z" fill="white"/>
</g>
<defs>
<clipPath id="clip0_73_1009">
<rect width="16" height="16" fill="white"/>
</clipPath>
</defs>
</svg>
