<svg width="16" height="16" viewBox="0 0 16 16" fill="none" xmlns="http://www.w3.org/2000/svg">
<g clip-path="url(#clip0_73_1011)">
<path d="M8 16C12.4183 16 16 12.4183 16 8C16 3.58172 12.4183 0 8 0C3.58172 0 0 3.58172 0 8C0 12.4183 3.58172 16 8 16Z" fill="white"/>
<path d="M13.3361 8.00013C13.3377 8.10973 13.3241 8.21913 13.2953 8.32493C13.2665 8.43073 13.2229 8.53213 13.1657 8.62573C13.1087 8.71933 13.0387 8.80454 12.9579 8.87874C12.8771 8.95294 12.7863 9.01534 12.6881 9.06414C12.6903 9.09334 12.6921 9.12274 12.6931 9.15214C12.6955 9.21078 12.6955 9.2695 12.6931 9.32814C12.6921 9.35754 12.6903 9.38694 12.6881 9.41614C12.6881 11.2082 10.6001 12.6642 8.02404 12.6642C5.44802 12.6642 3.36 11.2082 3.36 9.41614C3.3578 9.38694 3.356 9.35754 3.355 9.32814C3.3526 9.2695 3.3526 9.21078 3.355 9.15214C3.356 9.12274 3.3578 9.09334 3.36 9.06414C3.20615 8.99342 3.06951 8.89012 2.95952 8.76138C2.84953 8.63264 2.76883 8.48154 2.723 8.31853C2.67724 8.15545 2.6675 7.98438 2.69443 7.81716C2.72137 7.64994 2.78435 7.49058 2.879 7.35012C2.97357 7.20968 3.09756 7.09151 3.24237 7.00378C3.38718 6.91606 3.54934 6.8609 3.71761 6.84212C3.88589 6.82325 4.05627 6.84121 4.21692 6.89474C4.37758 6.94827 4.52467 7.03609 4.64801 7.15212C4.87698 6.99692 5.11688 6.85849 5.36582 6.73791C5.61482 6.61751 5.87223 6.51511 6.13603 6.43191C6.39983 6.34871 6.66943 6.28491 6.94244 6.24071C7.21544 6.19651 7.49144 6.17231 7.76804 6.16811L8.36005 3.39208C8.36665 3.35988 8.37965 3.32948 8.39825 3.30228C8.41665 3.27528 8.44045 3.25208 8.46785 3.23428C8.49545 3.21648 8.52625 3.20428 8.55865 3.19828C8.59085 3.19248 8.62405 3.19308 8.65605 3.20008L10.6161 3.59208C10.8139 3.25228 11.2291 3.10668 11.5957 3.24828C11.9623 3.38988 12.1719 3.77688 12.0899 4.16129C12.0081 4.54569 11.6589 4.81369 11.2665 4.79349C10.8739 4.77329 10.5541 4.47089 10.5121 4.08009L8.80005 3.72008L8.28005 6.21611C8.55325 6.22191 8.82585 6.24751 9.09545 6.29251C9.63535 6.3825 10.1594 6.54997 10.6515 6.78972C10.8972 6.90932 11.134 7.04647 11.3601 7.20012C11.5226 7.04408 11.7268 6.93843 11.9481 6.89592C12.1693 6.85326 12.3982 6.87555 12.6071 6.96012C12.816 7.04464 12.9959 7.1878 13.1253 7.37232C13.2547 7.55686 13.3279 7.7749 13.3361 8.00013ZM5.39682 9.10634C5.43722 9.20334 5.49602 9.29154 5.57042 9.36574C5.64462 9.44014 5.73282 9.49894 5.82983 9.53934C5.92692 9.5795 6.03096 9.60016 6.13603 9.60014C6.45963 9.60014 6.75123 9.40514 6.87523 9.10634C6.99904 8.80734 6.93043 8.46333 6.70163 8.23453C6.47283 8.00573 6.12883 7.93713 5.82983 8.06093C5.53102 8.18493 5.33602 8.47653 5.33602 8.80014C5.33602 8.90514 5.35662 9.00914 5.39682 9.10634ZM9.97886 11.0268C10.0199 10.9868 10.0433 10.9322 10.0441 10.875C10.0449 10.8176 10.0227 10.7624 9.98266 10.7214C9.94266 10.6804 9.88806 10.657 9.83086 10.6562C9.77346 10.6554 9.71826 10.6776 9.67206 10.7122C9.55176 10.7984 9.42437 10.8744 9.29126 10.9392C9.15813 11.004 9.01977 11.0574 8.87765 11.099C8.73565 11.1404 8.59025 11.1698 8.44325 11.1868C8.29605 11.2038 8.14785 11.2082 8.00004 11.2002C7.85244 11.2068 7.70444 11.2008 7.55784 11.1824C7.4112 11.1641 7.2664 11.1334 7.12504 11.0904C6.98344 11.0476 6.84603 10.9928 6.71383 10.9268C6.58163 10.8608 6.45523 10.7836 6.33603 10.6962C6.29463 10.6622 6.24203 10.6448 6.18843 10.6474C6.13483 10.65 6.08423 10.6726 6.04623 10.7104C6.00843 10.7484 5.98583 10.799 5.98323 10.8526C5.98063 10.9062 5.99803 10.9588 6.03203 11.0002C6.17263 11.1062 6.32203 11.1998 6.47863 11.2802C6.63523 11.3606 6.79863 11.4272 6.96664 11.4796C7.13464 11.532 7.30684 11.5698 7.48144 11.5928C7.65604 11.6156 7.83224 11.6234 8.00804 11.6162C8.18385 11.6234 8.36005 11.6156 8.53465 11.5928C8.88436 11.5468 9.22356 11.441 9.53746 11.2802C9.69406 11.1998 9.84346 11.1062 9.98406 11.0002L9.97886 11.0268ZM9.83206 9.66414C9.94046 9.66534 10.0481 9.64434 10.1483 9.60274C10.2485 9.56094 10.3391 9.49934 10.4147 9.42154C10.4903 9.34374 10.5491 9.25134 10.5879 9.14994C10.6267 9.04866 10.6445 8.94052 10.6401 8.83214C10.6401 8.50853 10.4451 8.21693 10.1463 8.09293C9.84726 7.96913 9.50326 8.03773 9.27446 8.26653C9.04565 8.49533 8.97705 8.83934 9.10085 9.13834C9.22486 9.43714 9.51646 9.63214 9.84006 9.63214L9.83206 9.66414Z" fill="#1B6392"/>
</g>
<defs>
<clipPath id="clip0_73_1011">
<rect width="16" height="16" fill="white"/>
</clipPath>
</defs>
</svg>
