<svg width="24" height="24" viewBox="0 0 24 24" fill="none" xmlns="http://www.w3.org/2000/svg">
<path d="M12 16.5C16.1421 16.5 19.5 13.1421 19.5 9C19.5 4.85786 16.1421 1.5 12 1.5C7.85786 1.5 4.5 4.85786 4.5 9C4.5 13.1421 7.85786 16.5 12 16.5Z" stroke="#2091F9" stroke-width="1.5" stroke-linecap="round" stroke-linejoin="round"/>
<path d="M12 13.5C14.4853 13.5 16.5 11.4853 16.5 9C16.5 6.51472 14.4853 4.5 12 4.5C9.51472 4.5 7.5 6.51472 7.5 9C7.5 11.4853 9.51472 13.5 12 13.5Z" stroke="#2091F9" stroke-width="1.5" stroke-linecap="round" stroke-linejoin="round"/>
<path d="M16.5 15V22.5L12 20.25L7.5 22.5V15" stroke="#2091F9" stroke-width="1.5" stroke-linecap="round" stroke-linejoin="round"/>
</svg>
