<svg width="16" height="16" viewBox="0 0 16 16" fill="none" xmlns="http://www.w3.org/2000/svg">
<path d="M5.03184 14.5024C11.0699 14.5024 14.3718 9.49713 14.3718 5.15673C14.3718 5.01458 14.3689 4.87308 14.3625 4.73217C15.005 4.26699 15.5595 3.69103 16 3.03128C15.4118 3.29294 14.7789 3.46904 14.1149 3.54844C14.7926 3.14181 15.3129 2.49851 15.5584 1.73169C14.914 2.11419 14.2091 2.38382 13.4739 2.52898C12.8749 1.89052 12.0221 1.49121 11.0778 1.49121C9.26494 1.49121 7.79489 2.96219 7.79489 4.7754C7.79489 5.03319 7.82374 5.28385 7.88006 5.52436C5.15177 5.38699 2.73252 4.07995 1.11343 2.09252C0.821818 2.59379 0.668434 3.16349 0.668943 3.74345C0.668943 4.88304 1.24846 5.88903 2.12976 6.47759C1.60846 6.46166 1.0986 6.32077 0.643057 6.06676C0.642569 6.08055 0.642569 6.09399 0.642569 6.10872C0.642569 7.69944 1.77408 9.02759 3.27613 9.32854C2.99402 9.40542 2.70292 9.44428 2.41054 9.44411C2.19938 9.44411 1.99359 9.42333 1.79359 9.38491C2.21151 10.69 3.42335 11.6397 4.86013 11.6663C3.73659 12.5474 2.32127 13.0723 0.783024 13.0723C0.521349 13.0725 0.259888 13.0573 0 13.0267C1.45281 13.9585 3.17789 14.5022 5.032 14.5022" fill="white"/>
</svg>
