<svg width="24" height="24" viewBox="0 0 24 24" fill="none" xmlns="http://www.w3.org/2000/svg">
<path d="M16.5 7.50002H20.4938C20.6432 7.49904 20.7894 7.54329 20.9132 7.62695C21.037 7.71061 21.1326 7.82977 21.1875 7.96877L22.5 11.25" stroke="#2091F9" stroke-width="1.5" stroke-linecap="round" stroke-linejoin="round"/>
<path d="M1.5 13.5H16.5" stroke="#2091F9" stroke-width="1.5" stroke-linecap="round" stroke-linejoin="round"/>
<path d="M17.625 20.25C18.8676 20.25 19.875 19.2426 19.875 18C19.875 16.7574 18.8676 15.75 17.625 15.75C16.3824 15.75 15.375 16.7574 15.375 18C15.375 19.2426 16.3824 20.25 17.625 20.25Z" stroke="#2091F9" stroke-width="1.5" stroke-miterlimit="10"/>
<path d="M6.375 20.25C7.61764 20.25 8.625 19.2426 8.625 18C8.625 16.7574 7.61764 15.75 6.375 15.75C5.13236 15.75 4.125 16.7574 4.125 18C4.125 19.2426 5.13236 20.25 6.375 20.25Z" stroke="#2091F9" stroke-width="1.5" stroke-miterlimit="10"/>
<path d="M15.375 18H8.625" stroke="#2091F9" stroke-width="1.5" stroke-linecap="round" stroke-linejoin="round"/>
<path d="M4.125 18H2.25C2.05109 18 1.86032 17.921 1.71967 17.7803C1.57902 17.6397 1.5 17.4489 1.5 17.25V6.75C1.5 6.55109 1.57902 6.36032 1.71967 6.21967C1.86032 6.07902 2.05109 6 2.25 6H16.5V16.05" stroke="#2091F9" stroke-width="1.5" stroke-linecap="round" stroke-linejoin="round"/>
<path d="M16.5 11.25H22.5V17.25C22.5 17.4489 22.421 17.6397 22.2803 17.7803C22.1397 17.921 21.9489 18 21.75 18H19.875" stroke="#2091F9" stroke-width="1.5" stroke-linecap="round" stroke-linejoin="round"/>
</svg>
