<svg width="16" height="16" viewBox="0 0 16 16" fill="none" xmlns="http://www.w3.org/2000/svg">
<path d="M8.3539 13.5021L5.07658 13.4422C4.01545 13.4213 2.95168 13.463 1.91136 13.2467C0.328798 12.9235 0.216683 11.3388 0.0993674 10.0096C-0.0622823 8.14084 0.000297152 6.23816 0.305351 4.38501C0.477564 3.3452 1.15529 2.72473 2.20337 2.65721C5.74142 2.41218 9.303 2.44122 12.8332 2.55553C13.206 2.56601 13.5814 2.62329 13.9491 2.68849C15.7638 3.00648 15.808 4.80228 15.9257 6.314C16.043 7.84132 15.9935 9.37649 15.7692 10.8934C15.5893 12.1494 15.2451 13.2026 13.7926 13.3043C11.9727 13.4373 10.1945 13.5443 8.36951 13.5102C8.36959 13.5021 8.35911 13.5021 8.3539 13.5021ZM6.42715 10.3224C7.79861 9.5352 9.14391 8.76114 10.5075 7.97924C9.1335 7.19206 7.79077 6.418 6.42715 5.6361V10.3224Z" fill="white"/>
</svg>
